# xmcd
#
# Track frame offsets:
#	150
#	17802
#	32347
#	47617
#	65130
#	76342
#	92937
#	104900
#	119000
#	131950
#	150590
#	164167
#
# Disc length: 2381
#
# Revision: 1
# Processed by: cddbd v1.5.1PL0 Copyright (c) Steve Scherf et al.
# Submitted via: EasyCDDAExtractor 4.6.0.1
# Normalized: r0:TDELIM( - )
#
DISCID=ac094b0c
DTITLE=Various Artist - Country's Greatest Hits Disc 3
DYEAR=1900
DGENRE=Country
TTITLE0=Kenny Rogers - Lady
TTITLE1=Tanya Tucker - Just Another Love
TTITLE2=Kathy Mattea - Eighteen Wheela and A Dozen Roses
TTITLE3=The Bellamy Brothers and Forester Sisters - Too Much is Not Enough
TTITLE4=Patty Loveless - A Little Bit in Love
TTITLE5=Dan Seals - Bop
TTITLE6=Sawyer Brown - This Missing You Heart of Mine
TTITLE7=Desert Rose Band - He's Back And I'm Blue
TTITLE8=Micheal Martin Murphey - Whats Forever For
TTITLE9=Juice Newton - The Sweetest Thing
TTITLE10=Mel McDaniel - Baby's Got Her Blue Jeans On
TTITLE11=T. Graham Brown - Hell and High Water
EXTD=
EXTT0=
EXTT1=
EXTT2=
EXTT3=
EXTT4=
EXTT5=
EXTT6=
EXTT7=
EXTT8=
EXTT9=
EXTT10=
EXTT11=
PLAYORDER=
